{"title":"The.Green.Hornet.2011.R5.LiNE.New.Audio.x264.Feel-Free","uid":6206321,"size":963715951,"categoryP":"video","categoryS":"movies","magnet":"?xt=urn:btih:3f334a5e0f302783abcad4bfe4664b4664f88961&amp;dn=The.Green.Hornet.2011.R5.LiNE.New.Audio.x264.Feel-Free&amp;tr=udp%3A%2F%2Ftracker.openbittorrent.com%3A80&amp;tr=udp%3A%2F%2Fopen.demonii.com%3A1337&amp;tr=udp%3A%2F%2Ftracker.coppersurfer.tk%3A6969&amp;tr=udp%3A%2F%2Fexodus.desync.com%3A6969","seeders":1,"leechers":0,"uploader":"hiest","files":-1,"time":1298820726,"description":"\n######## ######## ######## ##               ######## ########  ######## ######## \n##       ##       ##       ##               ##       ##     ## ##       ##       \n##       ##       ##       ##               ##       ##     ## ##       ##       \n######   ######   ######   ##       ####### ######   ########  ######   ######   \n##       ##       ##       ##               ##       ##   ##   ##       ##       \n##       ##       ##       ##               ##       ##    ##  ##       ##       \n##       ######## ######## ########         ##       ##     ## ######## ######## \n\n\nGenre:Action | Crime | Thriller\nLanguage:English\nIMDb: &lt;a href=&quot;\nhttp://www.imdb.com/title/tt0990407/&quot; rel=&quot;nofollow&quot; target=&quot;_NEW&quot;&gt;\nhttp://www.imdb.com/title/tt0990407/&lt;/a&gt;\nSource:DVD9 R5/IMAGINE Thx.\nSubtitles:Romana\n\n\nFormat : MPEG-4\nFormat profile : Base Media\nCodec ID : isom\nFile size : 917 MiB\nDuration : 1h 54mn\nOverall bit rate : 1 123 Kbps\n\n\nVideo\nFormat profile : &lt;a class=&quot;__cf_email__&quot; href=&quot;/cdn-cgi/l/email-protection&quot; data-cfemail=&quot;367e5f515e767a021807&quot;&gt;[email&amp;#160;protected]&lt;/a&gt;&lt;script cf-hash='f9e31' type=&quot;text/javascript&quot;&gt;\n/* &lt;![CDATA[ */!function(){try{var t=&quot;currentScript&quot;in document?document.currentScript:function(){for(var t=document.getElementsByTagName(&quot;script&quot;),e=t.length;e--;)if(t[e].getAttribute(&quot;cf-hash&quot;))return t[e]}();if(t&amp;&amp;t.previousSibling){var e,r,n,i,c=t.previousSibling,a=c.getAttribute(&quot;data-cfemail&quot;);if(a){for(e=&quot;&quot;,r=parseInt(a.substr(0,2),16),n=2;a.length-n;n+=2)i=parseInt(a.substr(n,2),16)^r,e+=String.fromCharCode(i);e=document.createTextNode(e),c.parentNode.replaceChild(e,c)}}}catch(u){}}();/* ]]&gt; */&lt;/script&gt;\nFormat settings, CABAC : Yes\nFormat settings, ReFrames : 3 frames\nCodec ID : avc1\nCodec ID/Info : Advanced Video Coding\nDuration : 1h 54mn\nBit rate mode : Variable\nBit rate : 879 Kbps\nMaximum bit rate : 6 893 Kbps\nWidth : 720 pixels\nHeight : 304 pixels\nDisplay aspect ratio : 2.35:1\nFrame rate mode : Constant\nFrame rate : 25.000 fps\nColor space : YUV\nChroma subsampling : 4:2:0\nBit depth : 8 bits\nScan type : Progressive\nBits/(Pixel*Frame) : 0.161\nStream size : 715 MiB (78%)\nWriting library : x264\n\n\nAudio\nID : 2\nFormat : AAC\nFormat/Info : Advanced Audio Codec\nFormat version : Version 4\nFormat profile : LC\nFormat settings, SBR : No\nCodec ID : 40\nDuration : 1h 54mn\nBit rate mode : Variable\nBit rate : 243 Kbps\nMaximum bit rate : 296 Kbps\nChannel(s) : 2 channels\nChannel positions : Front: L R\nSampling rate : 44.1 KHz\nStream size : 199 MiB (22%)\n\n\nPlot:\nFollowing the death of his father, Britt Reid, heir to his father's large company, teams up with his late dad's assistant Kato to become a masked crime fighting team.\n\n\n\n\n\n================================== &lt;a href=&quot;\nhttp://thepiratebay.se/user/hiest&quot; rel=&quot;nofollow&quot; target=&quot;_NEW&quot;&gt;\nhttp://thepiratebay.se/user/hiest&lt;/a&gt;\n==================================\n\n\n\n\n\nScreen Shots:\n &lt;a href=&quot;\nhttp://www.postimg.com/30000/29074.jpg&quot; rel=&quot;nofollow&quot; target=&quot;_NEW&quot;&gt;\nhttp://www.postimg.com/30000/29074.jpg&lt;/a&gt;\n &lt;a href=&quot;\nhttp://www.postimg.com/30000/29075.jpg&quot; rel=&quot;nofollow&quot; target=&quot;_NEW&quot;&gt;\nhttp://www.postimg.com/30000/29075.jpg&lt;/a&gt;\n &lt;a href=&quot;\nhttp://www.postimg.com/30000/29076.jpg&quot; rel=&quot;nofollow&quot; target=&quot;_NEW&quot;&gt;\nhttp://www.postimg.com/30000/29076.jpg&lt;/a&gt;\n &lt;a href=&quot;\nhttp://www.postimg.com/30000/29077.jpg&quot; rel=&quot;nofollow&quot; target=&quot;_NEW&quot;&gt;\nhttp://www.postimg.com/30000/29077.jpg&lt;/a&gt;\n &lt;a href=&quot;\nhttp://www.postimg.com/30000/29078.jpg&quot; rel=&quot;nofollow&quot; target=&quot;_NEW&quot;&gt;\nhttp://www.postimg.com/30000/29078.jpg&lt;/a&gt;\n &lt;a href=&quot;\nhttp://www.postimg.com/30000/29079.jpg&quot; rel=&quot;nofollow&quot; target=&quot;_NEW&quot;&gt;\nhttp://www.postimg.com/30000/29079.jpg&lt;/a&gt;\n\n\n######## ######## ######## ##               ######## ########  ######## ######## \n##       ##       ##       ##               ##       ##     ## ##       ##       \n##       ##       ##       ##               ##       ##     ## ##       ##       \n######   ######   ######   ##       ####### ######   ########  ######   ######   \n##       ##       ##       ##               ##       ##   ##   ##       ##       \n##       ##       ##       ##               ##       ##    ##  ##       ##       \n##       ######## ######## ########         ##       ##     ## ######## ######## \n\n","torrent":{"xt":"urn:btih:3f334a5e0f302783abcad4bfe4664b4664f88961","amp;dn":"The.Green.Hornet.2011.R5.LiNE.New.Audio.x264.Feel-Free","amp;tr":["udp%3A%2F%2Ftracker.openbittorrent.com%3A80","udp%3A%2F%2Fopen.demonii.com%3A1337","udp%3A%2F%2Ftracker.coppersurfer.tk%3A6969","udp%3A%2F%2Fexodus.desync.com%3A6969"],"infoHash":"3f334a5e0f302783abcad4bfe4664b4664f88961","infoHashBuffer":{"type":"Buffer","data":[63,51,74,94,15,48,39,131,171,202,212,191,228,102,75,70,100,248,137,97]},"announce":[],"urlList":[]}}